<svg width="24" height="24" viewBox="0 0 24 24" fill="none" xmlns="http://www.w3.org/2000/svg">
<path fill-rule="evenodd" clip-rule="evenodd" d="M6 0H18C19 0 20.1 1.94286 20.5 2.85714C20.9 3.77143 21.6667 7.04762 22 8.57143C23 9.14286 24 11.0857 24 12V18.8571C24 20 23.3 20.5714 22.5 20.5714V22.8571C22.3333 23.2381 21.8 24 21 24H19.5C19 24 18 23.7714 18 22.8571V20.5714H6V22.2857C6 22.8571 5.8 24 5 24H2.5C2.16667 23.8095 1.5 23.2 1.5 22.2857V20.5714C1 20.5714 0 20.3429 0 19.4286V11.4286C0 10.6269 1.2 9.02857 2 8.57143C2.4 7.2 3.16667 4.19048 3.5 2.85714C3.83333 1.90476 4.8 0 6 0ZM5 8.57143L6.5 3.42857H17.5L19 8.57143H5Z" fill="white"/>
</svg>
