<svg width="121" height="92" viewBox="0 0 121 92" fill="none" xmlns="http://www.w3.org/2000/svg">
<path d="M79.9063 75.4304C82.491 79.2993 79.6152 82.6656 77.8543 83.8651L78.5503 85.1662L81.52 84.2209L83.7937 81.9748L85.0431 77.5736L84.2165 73.382L82.4963 69.9259L76.9917 67.336L70.3958 67.5181L69.8424 73.2202C72.1201 72.3449 77.3216 71.5616 79.9063 75.4304Z" fill="#A0A0A0"/>
<path d="M23.3854 4.27457L24.2269 3.58192C24.5894 3.28364 25.1104 3.27755 25.4797 3.56728L38.4407 13.7364C38.5465 13.8194 38.6345 13.923 38.6994 14.0408L42.8765 21.6274C43.0434 21.9305 43.0417 22.2983 42.8722 22.5999L36.04 34.7501C35.8312 35.1213 35.8805 35.5839 36.1627 35.9029L46.4357 47.5137L65.8012 71.4956C65.8588 71.5669 65.9063 71.6458 65.9423 71.73L71.3853 84.4317C71.5117 84.7267 71.7721 84.9431 72.0852 85.0135L77.6731 86.2696C77.9002 86.3206 78.1379 86.2909 78.3453 86.1855L82.7814 83.9322C84.0351 83.3868 85.5761 79.8817 85.219 84.2068C85.1994 84.4437 85.0861 84.6737 84.9135 84.8371C74.6466 94.5544 68.7635 88.3133 66.094 86.424C64.0381 84.9689 63.3911 80.056 63.3064 77.4633C63.2989 77.2322 63.2165 77.011 63.0674 76.8343L33.0116 41.2115C32.8114 40.9742 32.5054 40.8439 32.1952 40.8567C21.1662 41.3122 19.1834 39.925 15.0341 37.5262C14.9664 37.487 14.9005 37.4378 14.8439 37.3838C4.93342 27.934 7.65965 18.1504 10.8115 13.5211C11.1834 12.9748 11.9676 13.0092 12.3497 13.5484C17.6634 21.0492 27.8393 33.1428 31.3967 28.7862C35.0557 24.3052 34.4769 20.0713 33.6939 18.4122C33.6628 18.3462 33.623 18.2866 33.5766 18.2303L23.2488 5.68217C22.8978 5.25574 22.959 4.62554 23.3854 4.27457Z" fill="#A0A0A0"/>
<path fill-rule="evenodd" clip-rule="evenodd" d="M24.8259 4.01935C24.4251 3.50019 24.6253 2.74766 25.2565 2.56977C29.2831 1.43509 37.1382 1.35536 43.2671 8.14802C49.7509 15.3342 48.0172 23.9704 46.1153 27.9445C45.9397 28.3114 45.9782 28.7469 46.2348 29.0625L76.3554 66.1029C76.5498 66.342 76.8432 66.4759 77.1512 66.4823C79.6542 66.5344 84.295 67.332 86.162 70.2816C88.6573 74.224 89.5749 81.7135 82.4652 87.1906C76.9637 91.4287 70.9988 88.1334 68.6169 85.8465C67.0452 84.3751 64.2896 80.4532 65.3505 76.1788C65.4292 75.8614 65.3813 75.5299 65.18 75.2722C60.622 69.4372 43.4919 49.3868 34.9269 39.4286C34.6749 39.1356 34.2868 39.0235 33.9106 39.1122C28.8645 40.3025 18.6756 40.4706 13.7762 32.4208C8.05955 23.0283 9.67916 17.2453 10.5884 14.4325C10.6304 14.3023 10.6954 13.9975 10.7627 13.6615C10.8896 13.0274 11.5544 12.7245 12.0665 13.1194C15.6971 15.9194 20.7693 23.2563 23.2817 26.2178C23.3672 26.3185 23.4688 26.3974 23.5887 26.4529C25.3944 27.2884 29.5019 28.2672 32.8953 26.0537C36.3127 23.8245 36.017 19.7292 35.4058 17.8117C35.3731 17.7093 35.3212 17.6151 35.2555 17.53L24.8259 4.01935ZM73.338 71.0926C69.4719 72.8719 69.7318 77.1838 70.4713 79.4483C72.1125 83.719 77.2966 85.0736 80.4562 82.4731C84.0309 79.5309 83.6116 75.3788 82.18 73.1842C81.0622 71.4705 78.5023 68.7159 73.338 71.0926Z" fill="#D9D9D9"/>
<rect x="1" y="41" width="119" height="23" fill="url(#paint0_linear_55_209)"/>
<path d="M1.494 59V46.4H6.948C8.076 46.4 9.048 46.586 9.864 46.958C10.68 47.318 11.31 47.84 11.754 48.524C12.198 49.208 12.42 50.024 12.42 50.972C12.42 51.908 12.198 52.718 11.754 53.402C11.31 54.086 10.68 54.614 9.864 54.986C9.048 55.346 8.076 55.526 6.948 55.526H3.114L4.41 54.212V59H1.494ZM4.41 54.536L3.114 53.15H6.786C7.686 53.15 8.358 52.958 8.802 52.574C9.246 52.19 9.468 51.656 9.468 50.972C9.468 50.276 9.246 49.736 8.802 49.352C8.358 48.968 7.686 48.776 6.786 48.776H3.114L4.41 47.39V54.536ZM66.2524 59L62.1304 46.4H65.1544L68.7364 57.56H67.2244L70.9684 46.4H73.6684L77.2684 57.56H75.8104L79.4824 46.4H82.2724L78.1504 59H75.0184L71.8324 49.208H72.6604L69.3844 59H66.2524Z" fill="#FF9718"/>
<path d="M12.213 59L17.829 46.4H20.709L26.343 59H23.283L18.675 47.876H19.827L15.201 59H12.213ZM15.021 56.3L15.795 54.086H22.275L23.067 56.3H15.021ZM27.6503 59V46.4H33.1043C34.2323 46.4 35.2043 46.586 36.0203 46.958C36.8363 47.318 37.4663 47.84 37.9103 48.524C38.3543 49.208 38.5763 50.024 38.5763 50.972C38.5763 51.908 38.3543 52.718 37.9103 53.402C37.4663 54.074 36.8363 54.59 36.0203 54.95C35.2043 55.31 34.2323 55.49 33.1043 55.49H29.2703L30.5663 54.212V59H27.6503ZM35.6602 59L32.5103 54.428H35.6243L38.8103 59H35.6602ZM30.5663 54.536L29.2703 53.168H32.9423C33.8423 53.168 34.5143 52.976 34.9583 52.592C35.4023 52.196 35.6243 51.656 35.6243 50.972C35.6243 50.276 35.4023 49.736 34.9583 49.352C34.5143 48.968 33.8423 48.776 32.9423 48.776H29.2703L30.5663 47.39V54.536ZM43.3208 59V48.776H39.2888V46.4H50.2688V48.776H46.2368V59H43.3208ZM55.8899 59.216C54.8819 59.216 53.9159 59.084 52.9919 58.82C52.0679 58.544 51.3239 58.19 50.7599 57.758L51.7499 55.562C52.2899 55.946 52.9259 56.264 53.6579 56.516C54.4019 56.756 55.1519 56.876 55.9079 56.876C56.4839 56.876 56.9459 56.822 57.2939 56.714C57.6539 56.594 57.9179 56.432 58.0859 56.228C58.2539 56.024 58.3379 55.79 58.3379 55.526C58.3379 55.19 58.2059 54.926 57.9419 54.734C57.6779 54.53 57.3299 54.368 56.8979 54.248C56.4659 54.116 55.9859 53.996 55.4579 53.888C54.9419 53.768 54.4199 53.624 53.8919 53.456C53.3759 53.288 52.9019 53.072 52.4699 52.808C52.0379 52.544 51.6839 52.196 51.4079 51.764C51.1439 51.332 51.0119 50.78 51.0119 50.108C51.0119 49.388 51.2039 48.734 51.5879 48.146C51.9839 47.546 52.5719 47.072 53.3519 46.724C54.1439 46.364 55.1339 46.184 56.3219 46.184C57.1139 46.184 57.8939 46.28 58.6619 46.472C59.4299 46.652 60.1079 46.928 60.6959 47.3L59.7959 49.514C59.2079 49.178 58.6199 48.932 58.0319 48.776C57.4439 48.608 56.8679 48.524 56.3039 48.524C55.7399 48.524 55.2779 48.59 54.9179 48.722C54.5579 48.854 54.2999 49.028 54.1439 49.244C53.9879 49.448 53.9099 49.688 53.9099 49.964C53.9099 50.288 54.0419 50.552 54.3059 50.756C54.5699 50.948 54.9179 51.104 55.3499 51.224C55.7819 51.344 56.2559 51.464 56.7719 51.584C57.2999 51.704 57.8219 51.842 58.3379 51.998C58.8659 52.154 59.3459 52.364 59.7779 52.628C60.2099 52.892 60.5579 53.24 60.8219 53.672C61.0979 54.104 61.2359 54.65 61.2359 55.31C61.2359 56.018 61.0379 56.666 60.6419 57.254C60.2459 57.842 59.6519 58.316 58.8599 58.676C58.0799 59.036 57.0899 59.216 55.8899 59.216ZM81.8224 59L87.4384 46.4H90.3184L95.9524 59H92.8924L88.2844 47.876H89.4364L84.8104 59H81.8224ZM84.6304 56.3L85.4044 54.086H91.8844L92.6764 56.3H84.6304ZM100.354 59L94.9181 46.4H98.0681L102.82 57.56H100.966L105.79 46.4H108.688L103.234 59H100.354ZM112.422 51.476H118.488V53.744H112.422V51.476ZM112.638 56.66H119.496V59H109.74V46.4H119.262V48.74H112.638V56.66Z" fill="white"/>
<defs>
<linearGradient id="paint0_linear_55_209" x1="1" y1="43.7381" x2="1" y2="63.4524" gradientUnits="userSpaceOnUse">
<stop stop-color="#242424" stop-opacity="0"/>
<stop offset="0.150014" stop-color="#242424"/>
<stop offset="0.850029" stop-color="#242424"/>
<stop offset="1" stop-color="#242424" stop-opacity="0"/>
</linearGradient>
</defs>
</svg>
